HIERARCHY
ROOT joint_Root
{
	OFFSET 0.0 0.0 0.0
	CHANNELS 6 Xposition Yposition Zposition Zrotation Xrotation Yrotation 
	JOINT Hips
	{
		OFFSET -0.726466 93.3139 -2.00062
		CHANNELS 6 Xposition Yposition Zposition Zrotation Xrotation Yrotation 
		JOINT Spine
		{
			OFFSET 15.7357 0.0 0.0
			CHANNELS 6 Xposition Yposition Zposition Zrotation Xrotation Yrotation 
			JOINT Chest
			{
				OFFSET 8.98455 -0.406207 0.0
				CHANNELS 6 Xposition Yposition Zposition Zrotation Xrotation Yrotation 
				JOINT Neck
				{
					OFFSET 16.3773 0.0 0.0
					CHANNELS 6 Xposition Yposition Zposition Zrotation Xrotation Yrotation 
					JOINT Head
					{
						OFFSET 6.45672 0.0 0.0
						CHANNELS 6 Xposition Yposition Zposition Zrotation Xrotation Yrotation 
						End Site
						{
							OFFSET 0.0 0.0 0.0
						}
					}
				}
				JOINT Shoulder_L
				{
					OFFSET 12.9942 -0.242716 4.98039
					CHANNELS 6 Xposition Yposition Zposition Zrotation Xrotation Yrotation 
					JOINT UpperArm_L
					{
						OFFSET 5.34809 0.0 0.0
						CHANNELS 6 Xposition Yposition Zposition Zrotation Xrotation Yrotation 
						JOINT LowerArm_L
						{
							OFFSET 24.3286 1.87007e-05 0.0
							CHANNELS 6 Xposition Yposition Zposition Zrotation Xrotation Yrotation 
							JOINT Hand_L
							{
								OFFSET 22.2916 0.0 0.0
								CHANNELS 6 Xposition Yposition Zposition Zrotation Xrotation Yrotation 
								End Site
								{
									OFFSET 0.0 0.0 0.0
								}
							}
						}
					}
				}
				JOINT Shoulder_R
				{
					OFFSET 12.9945 -0.242716 -4.98039
					CHANNELS 6 Xposition Yposition Zposition Zrotation Xrotation Yrotation 
					JOINT UpperArm_R
					{
						OFFSET -5.34813 0.0 0.0
						CHANNELS 6 Xposition Yposition Zposition Zrotation Xrotation Yrotation 
						JOINT LowerArm_R
						{
							OFFSET -24.3289 0.000322201 0.0
							CHANNELS 6 Xposition Yposition Zposition Zrotation Xrotation Yrotation 
							JOINT Hand_R
							{
								OFFSET -22.2915 -0.000108084 0.0
								CHANNELS 6 Xposition Yposition Zposition Zrotation Xrotation Yrotation 
								End Site
								{
									OFFSET 0.0 0.0 0.0
								}
							}
						}
					}
				}
			}
		}
		JOINT UpperLeg_L
		{
			OFFSET -2.19248 -6.46944 0.0
			CHANNELS 6 Xposition Yposition Zposition Zrotation Xrotation Yrotation 
			JOINT LowerLeg_L
			{
				OFFSET 39.0811 0.0 -1.23785e-05
				CHANNELS 6 Xposition Yposition Zposition Zrotation Xrotation Yrotation 
				JOINT Foot_L
				{
					OFFSET 40.9854 0.0 -1.26872e-05
					CHANNELS 6 Xposition Yposition Zposition Zrotation Xrotation Yrotation 
					JOINT Toes_L
					{
						OFFSET 11.7543 0.0 0.0
						CHANNELS 6 Xposition Yposition Zposition Zrotation Xrotation Yrotation 
						End Site
						{
							OFFSET 0.0 0.0 0.0
						}
					}
				}
			}
		}
		JOINT UpperLeg_R
		{
			OFFSET -2.19251 6.46944 0.0
			CHANNELS 6 Xposition Yposition Zposition Zrotation Xrotation Yrotation 
			JOINT LowerLeg_R
			{
				OFFSET -39.0811 -0.00228153 -0.0401928
				CHANNELS 6 Xposition Yposition Zposition Zrotation Xrotation Yrotation 
				JOINT Foot_R
				{
					OFFSET -40.9854 0.0 0.0
					CHANNELS 6 Xposition Yposition Zposition Zrotation Xrotation Yrotation 
					JOINT Toes_R
					{
						OFFSET -11.7543 0.0 0.0
						CHANNELS 6 Xposition Yposition Zposition Zrotation Xrotation Yrotation 
						End Site
						{
							OFFSET 0.0 0.0 0.0
						}
					}
				}
			}
		}
	}
}
MOTION
Frames:	4
Frame Time:	0.0333333
0.000000 0.000000 0.000000 0.000000 0.000000 -0.000000 -0.568095 92.188100 0.083839 88.057400 -2.472030 4.389790 15.735700 0.000005 -0.000001 86.920200 85.203800 -86.328200 8.984550 -0.406207 -0.000000 1.815740 -0.545803 1.191590 16.377300 -0.000001 -0.000001 4.150890 -2.201460 0.010815 6.456720 -0.000001 -0.000000 1.560290 -1.024530 -0.230988 12.994200 -0.242716 4.980390 -90.160500 0.524554 -72.985900 5.348090 -0.000007 -0.000001 -67.218000 38.076200 -15.322400 24.328600 0.000019 0.000005 2.386900 5.329920 -24.167100 22.291600 -0.000001 0.000005 3.189110 5.484780 -5.932070 12.994500 -0.242716 -4.980390 87.681300 6.920470 -71.425300 -5.348130 -0.000001 -0.000004 -65.710700 39.512100 -14.847300 -24.328900 0.000322 -0.000009 2.115800 7.081500 -16.690000 -22.291500 -0.000108 -0.000004 9.425130 5.411540 -3.316160 -2.192480 -6.469440 -0.000000 -175.530000 -7.003990 -1.538970 39.081100 -0.000007 -0.000012 -0.115627 0.271780 23.047000 40.985400 -0.000006 -0.000013 -0.371401 2.340530 -67.217100 11.754300 -0.000000 0.000003 -0.000052 -0.000581 -16.600100 -2.192510 6.469440 -0.000001 179.522000 11.650700 -179.967000 -39.081100 -0.002282 -0.040193 -0.027546 0.083400 20.310000 -40.985400 0.000008 0.000006 3.650640 7.388490 -66.468600 -11.754300 -0.000006 -0.000006 -0.007673 -0.085346 -20.048100
0.000000 0.000000 0.000000 0.000000 0.000000 -0.000000 -0.581829 92.198500 0.008651 88.094600 -2.258920 4.474880 15.735700 0.000005 -0.000001 86.724300 85.163200 -86.150200 8.984550 -0.406207 -0.000000 1.895100 -0.581827 1.156790 16.377300 -0.000001 -0.000001 4.010650 -2.322970 0.085832 6.456720 -0.000001 -0.000000 1.461730 -1.135100 -0.098072 12.994200 -0.242716 4.980390 -90.292000 0.953967 -72.982800 5.348090 -0.000007 -0.000001 -66.035600 35.782500 -16.341100 24.328600 0.000019 0.000005 2.508200 5.065530 -26.386100 22.291600 -0.000001 0.000005 2.999400 5.451210 -4.682120 12.994500 -0.242716 -4.980390 87.709400 6.836480 -71.426000 -5.348130 -0.000001 -0.000004 -65.846900 39.409400 -14.765100 -24.328900 0.000322 -0.000009 2.073280 6.945670 -16.673700 -22.291500 -0.000108 -0.000004 9.528800 5.412450 -3.346500 -2.192480 -6.469440 -0.000000 -175.541000 -6.925590 -1.514020 39.081100 -0.000007 -0.000012 -0.114791 0.270394 23.002800 40.985400 -0.000006 -0.000013 -0.351846 2.500180 -67.125700 11.754300 -0.000000 0.000003 -0.000044 -0.000505 -16.597200 -2.192510 6.469440 -0.000001 179.493000 11.758000 -179.916000 -39.081100 -0.002282 -0.040193 -0.026291 0.080019 20.307200 -40.985400 0.000008 0.000006 3.706520 7.310120 -66.441200 -11.754300 -0.000006 -0.000006 -0.007442 -0.083412 -19.969200
0.000000 0.000000 0.000000 0.000000 0.000000 -0.000000 -0.626839 92.200800 -0.110689 88.119900 -1.911430 4.492300 15.735700 0.000005 -0.000001 87.168900 85.142700 -86.641700 8.984550 -0.406207 -0.000000 1.939410 -0.506322 1.062090 16.377300 -0.000001 -0.000001 3.895690 -2.601380 0.196249 6.456720 -0.000001 -0.000000 1.345030 -1.461450 0.136695 12.994200 -0.242716 4.980390 -90.412100 1.352870 -73.057200 5.348090 -0.000007 -0.000001 -63.856500 32.607600 -18.639900 24.328600 0.000019 0.000005 2.340620 4.090250 -29.815900 22.291600 -0.000001 0.000005 3.167540 5.432700 -4.031730 12.994500 -0.242716 -4.980390 87.761600 6.664280 -71.385800 -5.348130 -0.000001 -0.000004 -66.190400 39.308000 -14.518800 -24.328900 0.000322 -0.000009 2.037350 6.797210 -16.737000 -22.291500 -0.000108 -0.000004 9.453400 5.411420 -3.312120 -2.192480 -6.469440 -0.000000 -175.566000 -6.631020 -1.671270 39.081100 -0.000007 -0.000012 -0.115632 0.271517 23.068100 40.985400 -0.000006 -0.000013 -0.363679 2.557100 -67.040300 11.754300 -0.000000 0.000003 -0.000055 -0.000610 -16.601200 -2.192510 6.469440 -0.000001 179.501000 11.905500 -179.981000 -39.081100 -0.002282 -0.040193 -0.028767 0.086501 20.352300 -40.985400 0.000008 0.000006 3.615170 7.115700 -66.389300 -11.754300 -0.000006 -0.000006 -0.007470 -0.083653 -19.979000
0.000000 0.000000 0.000000 0.000000 0.000000 -0.000000 -0.687565 92.208700 -0.253825 88.154600 -1.406390 4.496150 15.735700 0.000005 -0.000001 87.611200 85.148500 -87.140100 8.984550 -0.406207 -0.000000 1.930430 -0.428135 0.948647 16.377300 -0.000001 -0.000001 3.900220 -2.895080 0.276574 6.456720 -0.000001 -0.000000 1.301830 -1.897200 0.339422 12.994200 -0.242716 4.980390 -90.444200 1.471730 -73.202100 5.348090 -0.000007 -0.000001 -61.294100 28.877300 -21.936100 24.328600 0.000019 0.000005 2.310070 3.354990 -34.578700 22.291600 -0.000001 0.000005 4.368240 5.452780 -4.738390 12.994500 -0.242716 -4.980390 87.813500 6.525240 -71.429400 -5.348130 -0.000001 -0.000004 -66.438600 39.388600 -14.232600 -24.328900 0.000322 -0.000009 2.021170 6.768910 -16.676700 -22.291500 -0.000108 -0.000004 9.449940 5.412080 -3.334000 -2.192480 -6.469440 -0.000000 -175.585000 -6.359260 -1.886770 39.081100 -0.000007 -0.000012 -0.114038 0.267096 23.120400 40.985400 -0.000006 -0.000013 -0.357076 2.747850 -66.903300 11.754300 -0.000000 0.000003 -0.000049 -0.000560 -16.599300 -2.192510 6.469440 -0.000001 179.512000 12.206900 179.943000 -39.081100 -0.002282 -0.040193 -0.031911 0.094882 20.371100 -40.985400 0.000008 0.000006 3.541790 6.930010 -66.318400 -11.754300 -0.000006 -0.000006 -0.007602 -0.084753 -20.023900
